<?xml version="1.0" encoding="utf-8"?>
<!-- Generator: Adobe Illustrator 21.0.0, SVG Export Plug-In . SVG Version: 6.00 Build 0)  -->
<svg version="1.1" xmlns="http://www.w3.org/2000/svg" xmlns:xlink="http://www.w3.org/1999/xlink" x="0px" y="0px"
	 viewBox="0 0 1400 980" enable-background="new 0 0 1400 980" xml:space="preserve">
<g id="background">
	<rect fill-rule="evenodd" clip-rule="evenodd" fill="#D7C9D6" width="1400" height="980"/>
	<path fill="#FFF7DC" d="M0,329.6h502.1L317.2,301c0,0,23.2-30.7-43.5-44.7c-66.7-14-72.1,20.7-72.1,20.7s6.8-44-25.9-56.7
		C143,207.7,105,217,105,217s6-30.7-24-40s-70.7-8.7-81,18.7V329.6z"/>
	<path fill="#FFF7DC" d="M168.8,143.8h487l-99-17c0,0-2-26-30-32c-28-6-41.3,0-41.3,0s-4.7-22-40.7-25s-46,15-46,15s-14.8-17-46.7-3
		c-14.8,6.5-12.3,24.8-12.3,24.8s-11.5-14.7-33.2-5.3c-18.2,7.8-14.8,18.5-14.8,18.5L168.8,143.8z"/>
	<path fill="#FFF7DC" d="M625,268.1h774.1V127.1c0,0-67.5,10-76.5,53c0,0-36.6-10.6-47.1,21.4c0,0-16-25.5-53.5-18.5
		s-34.5,42.5-34.5,42.5s-37.5-16.5-56-5.5s-19,25.5-19,25.5L625,268.1z"/>
</g>
<g id="object">
	<g>
		<g>
			<polygon fill-rule="evenodd" clip-rule="evenodd" fill="#534365" points="393,553 507.3,560.3 536.8,624.8 558.1,567.8 
				565.3,576.5 673.2,707.2 677.4,752.8 780.9,783.5 697.5,593.8 835,483.5 893.6,283.1 749.6,404.6 595.7,438.3 493,493.7 			"/>
			<polygon fill-rule="evenodd" clip-rule="evenodd" fill="#625177" points="449,529.5 599,446 749.6,404.6 595.7,438.3 
				446.3,521.9 			"/>
			<polygon fill-rule="evenodd" clip-rule="evenodd" fill="#625177" points="621,549.7 598.3,561.7 567.2,591.8 521.7,617.5 
				571.3,665.7 			"/>
			<polygon fill-rule="evenodd" clip-rule="evenodd" fill="#373059" points="580.3,640.3 621,549.7 643.3,647.7 607.3,701 			"/>
			<polygon fill-rule="evenodd" clip-rule="evenodd" fill="#373059" points="449,553.7 597,461.7 742.3,410.3 611.7,477.7 
				490.3,633.5 			"/>
			<path fill-rule="evenodd" clip-rule="evenodd" fill="#2C2751" d="M835,483.5L697.5,593.8l83.5,189.7l78.9,23.4l21.3-9.1
				l182.5-72.1c42.5-15.1,110-68.8,178.3-78.8L1024,445L893.6,283.1L835,483.5z"/>
			<polygon fill-rule="evenodd" clip-rule="evenodd" fill="#1F1A38" points="1201.7,636.3 1027.7,457.7 1179,656.4 			"/>
			<polygon fill-rule="evenodd" clip-rule="evenodd" fill="#1F1A38" points="910,435 1030,680 1101,665 			"/>
			<polygon fill-rule="evenodd" clip-rule="evenodd" fill="#122335" points="835,483.5 994,809.7 923.7,821.7 697.5,593.8 			"/>
			<polygon fill-rule="evenodd" clip-rule="evenodd" fill="#242042" points="789.9,519.7 975.7,783.5 835,483.5 			"/>
			<polygon fill-rule="evenodd" clip-rule="evenodd" fill="#625177" points="621,549.7 757.7,451 842.3,357 760.3,471.7 
				631.1,594.2 			"/>
			<polygon fill-rule="evenodd" clip-rule="evenodd" fill="#625177" points="893.6,283.1 700,471.5 749.6,404.6 			"/>
		</g>
		<polygon fill-rule="evenodd" clip-rule="evenodd" fill="#556985" points="583.8,925.2 587.8,817.7 625,768.6 583.6,722.5 
			565.3,576.5 558.1,567.8 536.8,624.8 480.5,751.6 461.2,623.6 415.3,590.3 385.3,483.5 342.1,529.5 304.1,621.8 263.1,524.1 
			283.2,457.5 268.9,404.6 240.5,373.5 0,656.4 170,673.9 241.5,733.9 314.1,759.7 380.7,863.8 467.7,937.9 550.9,939.3 		"/>
		<polygon fill-rule="evenodd" clip-rule="evenodd" fill="#2E4256" points="412.3,600.3 331.7,825.7 291,771 354.3,710.5 		"/>
		<polygon fill-rule="evenodd" clip-rule="evenodd" fill="#2E4256" points="259.6,740.4 304.1,621.8 275.4,553.4 289.7,611.7 
			259.6,680 240.3,696.3 201.6,786.3 		"/>
		<polygon fill-rule="evenodd" clip-rule="evenodd" fill="#425872" points="263.1,524.1 179,783.5 130.6,668.5 		"/>
		<path fill-rule="evenodd" clip-rule="evenodd" fill="#425872" d="M455.9,628.5L328,861c0,0,45.5,13,45,10.5
			S455.9,628.5,455.9,628.5z"/>
		<path fill-rule="evenodd" clip-rule="evenodd" fill="#627B99" d="M385.3,483.5c0,0-121.1,315.5-122.2,317.5S249,768.6,249,768.6
			l55.1-146.8l38-92.3L385.3,483.5z"/>
		<polygon fill-rule="evenodd" clip-rule="evenodd" fill="#627B99" points="283.2,457.5 263.1,524.1 120,680 		"/>
		<polygon fill-rule="evenodd" clip-rule="evenodd" fill="#627B99" points="270.4,410.3 242,400 0,701 5.1,650.4 240.5,373.5 		"/>
		<polygon fill-rule="evenodd" clip-rule="evenodd" fill="#1A3049" points="480.5,751.6 536.8,624.8 507.3,560.3 430.5,511.9 
			385.3,483.5 415.3,590.3 461.2,623.6 		"/>
		<polygon fill-rule="evenodd" clip-rule="evenodd" fill="#627B99" points="354.3,925.2 404.3,806.9 480.5,751.6 558.1,567.8 
			565.3,576.5 479.7,827.7 440.3,864.3 409,922.3 431,843 455.9,813.8 475,771.7 411.7,821.7 371.7,939.3 		"/>
		<path fill-rule="evenodd" clip-rule="evenodd" fill="#425872" d="M587.8,817.7L461,950.3c0,0,30.2,14.5,32.9,13.3
			C496.8,962.5,587.8,817.7,587.8,817.7z"/>
		<polygon fill-rule="evenodd" clip-rule="evenodd" fill="#1A3049" points="587.8,817.7 583.8,925.2 859.9,806.9 801.7,765.7 
			720.3,727.7 670.3,659.3 565.3,576.5 583.6,722.5 625,768.6 		"/>
		<polygon fill-rule="evenodd" clip-rule="evenodd" fill="#122335" points="657,721 849,875 789.9,881 		"/>
		<polygon fill-rule="evenodd" clip-rule="evenodd" fill="#223C56" points="631.7,690.3 720.3,727.7 801.7,765.7 882.8,821.7 
			854.3,831 774.4,768.6 		"/>
		<polygon fill-rule="evenodd" clip-rule="evenodd" fill="#122335" points="625,768.6 762.5,909 700,947.5 587.8,817.7 		"/>
		<polygon fill-rule="evenodd" clip-rule="evenodd" fill="#1A3049" points="304.1,621.8 342.1,529.5 301.5,440.2 268.9,404.6 
			283.2,457.5 263.1,524.1 		"/>
		<path fill-rule="evenodd" clip-rule="evenodd" fill="#556985" d="M1400,980V338.5l-223,309.1c-26.9,2.9-54.2-0.7-78,2.8
			c-68.3,10-62.5,17.5-105,32.6L881.2,797.8l-21.3,9.1L583.8,925.2l-32.9,14.1l-95,40.7H1400z"/>
		<polygon fill-rule="evenodd" clip-rule="evenodd" fill="#627B99" points="1400,338.5 1400,398.6 1156.9,727.7 1159,673 		"/>
		<polygon fill-rule="evenodd" clip-rule="evenodd" fill="#425872" points="1400,530.6 1261,806.9 1323,817.7 1370,713 1370,683 
			1400,621.3 		"/>
		<polygon fill-rule="evenodd" clip-rule="evenodd" fill="#627B99" points="0,980 455.9,980 550.9,939.3 467.7,937.9 380.7,863.8 
			314.1,759.7 241.5,733.9 170,673.9 62.3,659 0,650.4 		"/>
		<polygon fill-rule="evenodd" clip-rule="evenodd" fill="#1A3049" points="125,713 103,727.7 48,744 0,744 0,980 607.7,980 
			550.9,939.3 467.7,937.9 380.7,863.8 314.1,759.7 241.5,733.9 170,673.9 		"/>
		<path fill-rule="evenodd" clip-rule="evenodd" fill="#3C4F6E" d="M1267,768c-32-6-108-95-108-95l18-25.3
			c-26.9,2.9-54.2-0.7-78,2.8c-68.3,10-62.5,17.5-105,32.6l87,100.5c0,0,93,92.5,106,114.5s213,82,213,82V831l-80-38
			C1320,793,1299,774,1267,768z"/>
		<polygon fill-rule="evenodd" clip-rule="evenodd" fill="#223C56" points="720.3,727.7 666.7,656.4 565.3,576.5 568,597.7 667,680 
					"/>
		<polygon fill-rule="evenodd" clip-rule="evenodd" fill="#122335" points="314.1,759.7 335.7,847 401.7,952.3 482.3,980 524.4,959 
			446.3,942.3 346.3,840.3 338.1,797.2 		"/>
		<polygon fill-rule="evenodd" clip-rule="evenodd" fill="#122335" points="125,713 100,727.7 135.2,801 227,831 283.2,980 
			354.3,980 249,821.7 159,783.5 		"/>
		<polygon fill-rule="evenodd" clip-rule="evenodd" fill="#122335" points="0,744 48,744 82,853 178,980 130.6,980 48,858 29,759.7 
					"/>
		<polygon fill-rule="evenodd" clip-rule="evenodd" fill="#425872" points="616,980 888,821.7 1014,721 731.7,980 		"/>
		<polygon fill-rule="evenodd" clip-rule="evenodd" fill="#425872" points="1095,980 1191,910 1136,980 		"/>
		<polygon fill-rule="evenodd" clip-rule="evenodd" fill="#425872" points="849,980 1068,801 969.7,910 965,939.3 921,980 		"/>
		<polygon fill-rule="evenodd" clip-rule="evenodd" fill="#627B99" points="550.9,939.3 882.8,806.9 1000.3,690.3 994,683 872,801 
					"/>
		<polygon fill-rule="evenodd" clip-rule="evenodd" fill="#627B99" points="1026.9,721 1006.7,727.7 731.7,980 757.2,980 		"/>
		<polygon fill-rule="evenodd" clip-rule="evenodd" fill="#627B99" points="1139.6,843.4 975.7,980 994,980 1156.9,862 		"/>
	</g>
</g>
<g id="text">
</g>
</svg>
